# xmcd
#
# Track frame offsets:
# 150
# 24374
# 48522
# 70752
# 98168
# 110770
# 133112
# 145530
# 167775
# 183963
# 203894
# 220452
#
# Disc length: 3236 seconds
#
#
# Revision: 0
# Processed by: cddbd v1.4PL0 Copyright (c) Steve Scherf et al.
# Submitted via: FreeRIP 2.35 
#
DISCID=ae0ca20c
DTITLE=Various Artist - American Blues: Coast to Coast
DYEAR=2003
DGENRE=Blues
TTITLE0=Blues - Rufus Thomas - Just Because I Leave, That Don't Mean I'm Gone
TTITLE1=Blues - Koko Taylor - Bring Me Some Water
TTITLE2=Blues - Cray, Collins, and Copeland - T-Bone Shuffle
TTITLE3=Blues - Katie Webster - Pussycat Moan
TTITLE4=Blues - Floyd Dixon - Hey Bartender
TTITLE5=Blues - Corey Harris - Preaching Blues
TTITLE6=Blues - John Lee Hooker - I'm in the Mood
TTITLE7=Blues - Tommy Castro - Everybody Wants to Go to Heaven
TTITLE8=Blues - Eddie "Cleanhead" Vinson - Back Door Blues
TTITLE9=Blues - Professor Longhair - Her Mind is Gone
TTITLE10=Blues - Sonny Terry - Killin' Floor
TTITLE11=Blues - Roosevelt Sykes - Miss Ida B.
EXTD=Sharper Image
EXTT0=
EXTT1=
EXTT2=
EXTT3=
EXTT4=
EXTT5=
EXTT6=
EXTT7=
EXTT8=
EXTT9=
EXTT10=
EXTT11=
PLAYORDER=
